<svg width="24" height="24" viewBox="0 0 24 24" fill="none" xmlns="http://www.w3.org/2000/svg">
  <path d="M12 8.5A3.5 3.5 0 1 0 12 15.5A3.5 3.5 0 1 0 12 8.5Z" fill="#1677FF"/>
  <path d="M19 12L21 10.8L19.8 8.2L17.5 8.5C17.1 8 16.7 7.5 16.2 7.1L16.5 4.8L13.9 3.7L12.7 5.7C12.2 5.6 11.8 5.6 11.3 5.7L10.1 3.7L7.5 4.8L7.8 7.1C7.3 7.5 6.9 8 6.5 8.5L4.2 8.2L3 10.8L5 12L3 13.2L4.2 15.8L6.5 15.5C6.9 16 7.3 16.5 7.8 16.9L7.5 19.2L10.1 20.3L11.3 18.3C11.8 18.4 12.2 18.4 12.7 18.3L13.9 20.3L16.5 19.2L16.2 16.9C16.7 16.5 17.1 16 17.5 15.5L19.8 15.8L21 13.2L19 12Z" stroke="#1677FF" stroke-width="1.5" stroke-linejoin="round"/>
</svg>
